<svg width="48" height="48" viewBox="0 0 48 48" fill="none" xmlns="http://www.w3.org/2000/svg">
<g clip-path="url(#clip0_12_17)">
<rect width="48" height="48" fill="white"/>
<mask id="path-1-inside-1_12_17" fill="white">
<path fill-rule="evenodd" clip-rule="evenodd" d="M19.9797 10C18.2718 10 16.7522 11.0845 16.197 12.6997L14.0312 19H6C3.79086 19 2 20.7909 2 23V44C2 46.2091 3.79086 48 6 48H42C44.2091 48 46 46.2091 46 44V23C46 20.7909 44.2091 19 42 19H33.9688L31.803 12.6997C31.2478 11.0845 29.7282 10 28.0203 10H19.9797Z"/>
</mask>
<path d="M16.197 12.6997L19.034 13.6749L16.197 12.6997ZM14.0312 19V22H16.1723L16.8683 19.9752L14.0312 19ZM33.9688 19L31.1317 19.9752L31.8277 22H33.9688V19ZM31.803 12.6997L34.6401 11.7244V11.7244L31.803 12.6997ZM19.034 13.6749C19.1729 13.2711 19.5527 13 19.9797 13V7C16.9908 7 14.3316 8.89782 13.3599 11.7244L19.034 13.6749ZM16.8683 19.9752L19.034 13.6749L13.3599 11.7244L11.1942 18.0248L16.8683 19.9752ZM6 22H14.0312V16H6V22ZM5 23C5 22.4477 5.44772 22 6 22V16C2.13401 16 -1 19.134 -1 23H5ZM5 44V23H-1V44H5ZM6 45C5.44771 45 5 44.5523 5 44H-1C-1 47.866 2.13401 51 6 51V45ZM42 45H6V51H42V45ZM43 44C43 44.5523 42.5523 45 42 45V51C45.866 51 49 47.866 49 44H43ZM43 23V44H49V23H43ZM42 22C42.5523 22 43 22.4477 43 23H49C49 19.134 45.866 16 42 16V22ZM33.9688 22H42V16H33.9688V22ZM28.966 13.6749L31.1317 19.9752L36.8058 18.0248L34.6401 11.7244L28.966 13.6749ZM28.0203 13C28.4473 13 28.8272 13.2711 28.966 13.6749L34.6401 11.7244C33.6684 8.89783 31.0092 7 28.0203 7V13ZM19.9797 13H28.0203V7H19.9797V13Z" fill="#152C5B" mask="url(#path-1-inside-1_12_17)"/>
<circle cx="24.5" cy="32.5" r="7" stroke="#3252DF" stroke-width="3"/>
<rect x="34.75" y="24.75" width="6.5" height="1.5" rx="0.75" stroke="#2942B3" stroke-width="1.5" stroke-linecap="round"/>
</g>
<defs>
<clipPath id="clip0_12_17">
<rect width="48" height="48" fill="white"/>
</clipPath>
</defs>
</svg>
