<svg width="48" height="48" viewBox="0 0 48 48" fill="none" xmlns="http://www.w3.org/2000/svg">
<g clip-path="url(#clip0_12_11)">
<rect width="48" height="48" fill="white"/>
<path d="M35.5 42C35.5 42.3404 35.3511 42.7775 34.8525 43.3014C34.3466 43.833 33.5437 44.3799 32.4367 44.8719C30.2266 45.8542 27.0683 46.5 23.5 46.5C19.9317 46.5 16.7734 45.8542 14.5633 44.8719C13.4563 44.3799 12.6534 43.833 12.1475 43.3014C11.6489 42.7775 11.5 42.3404 11.5 42C11.5 41.6596 11.6489 41.2225 12.1475 40.6986C12.6534 40.167 13.4563 39.6201 14.5633 39.1281C16.7734 38.1458 19.9317 37.5 23.5 37.5C27.0683 37.5 30.2266 38.1458 32.4367 39.1281C33.5437 39.6201 34.3466 40.167 34.8525 40.6986C35.3511 41.2225 35.5 41.6596 35.5 42Z" stroke="#152C5B" stroke-width="3"/>
<path d="M36.5 17.1733C36.5 20.5077 34.9682 26.4825 32.4089 31.6491C31.1374 34.2161 29.6591 36.4854 28.076 38.0907C26.4788 39.7103 24.9334 40.5 23.5 40.5C22.0666 40.5 20.5212 39.7103 18.924 38.0907C17.3409 36.4854 15.8626 34.2161 14.5911 31.6491C12.0318 26.4825 10.5 20.5077 10.5 17.1733C10.5 10.8585 16.1816 5.5 23.5 5.5C30.8184 5.5 36.5 10.8585 36.5 17.1733Z" fill="white" stroke="#152C5B" stroke-width="3"/>
<circle cx="23.5" cy="17.5" r="5" stroke="#3252DF" stroke-width="3"/>
</g>
<defs>
<clipPath id="clip0_12_11">
<rect width="48" height="48" fill="white"/>
</clipPath>
</defs>
</svg>
